<?xml version="1.0" encoding="UTF-8" standalone="no"?>
<!-- Created with Inkscape (http://www.inkscape.org/) -->

<svg
   width="260"
   height="260"
   viewBox="0 0 68.791666 68.791666"
   version="1.1"
   id="svg1"
   inkscape:version="1.4.2 (f4327f4, 2025-05-13)"
   sodipodi:docname="holo.svg"
   inkscape:export-filename="holo.png"
   inkscape:export-xdpi="96"
   inkscape:export-ydpi="96"
   xmlns:inkscape="http://www.inkscape.org/namespaces/inkscape"
   xmlns:sodipodi="http://sodipodi.sourceforge.net/DTD/sodipodi-0.dtd"
   xmlns="http://www.w3.org/2000/svg"
   xmlns:svg="http://www.w3.org/2000/svg">
  <sodipodi:namedview
     id="namedview1"
     pagecolor="#5a5a5a"
     bordercolor="#eeeeee"
     borderopacity="1"
     inkscape:showpageshadow="0"
     inkscape:pageopacity="0"
     inkscape:pagecheckerboard="0"
     inkscape:deskcolor="#505050"
     inkscape:document-units="px"
     inkscape:zoom="1.4142136"
     inkscape:cx="70.710678"
     inkscape:cy="117.73328"
     inkscape:window-width="2560"
     inkscape:window-height="1351"
     inkscape:window-x="-9"
     inkscape:window-y="-9"
     inkscape:window-maximized="1"
     inkscape:current-layer="layer1" />
  <defs
     id="defs1">
    <inkscape:path-effect
       effect="powerclip"
       message=""
       id="path-effect2"
       is_visible="true"
       lpeversion="1"
       inverse="true"
       flatten="false"
       hide_clip="false" />
    <clipPath
       clipPathUnits="userSpaceOnUse"
       id="clipPath2">
      <circle
         style="display:none;fill:#000000;stroke-width:0.264583"
         id="circle2"
         cx="69.372444"
         cy="127.90336"
         r="3.5"
         d="m 72.872444,127.90336 a 3.5,3.5 0 0 1 -3.5,3.5 3.5,3.5 0 0 1 -3.5,-3.5 3.5,3.5 0 0 1 3.5,-3.5 3.5,3.5 0 0 1 3.5,3.5 z" />
      <path
         id="lpe_path-effect2"
         style="fill:#000000;stroke-width:0.264583"
         class="powerclip"
         d="m 60.39505,118.89048 h 18 v 18 h -18 z m 12.477394,9.01288 a 3.5,3.5 0 0 0 -3.5,-3.5 3.5,3.5 0 0 0 -3.5,3.5 3.5,3.5 0 0 0 3.5,3.5 3.5,3.5 0 0 0 3.5,-3.5 z" />
    </clipPath>
  </defs>
  <g
     inkscape:label="Шар 1"
     inkscape:groupmode="layer"
     id="layer1">
    <path
       style="fill:#000000;stroke-width:0.264583"
       id="path1"
       clip-path="url(#clipPath2)"
       inkscape:path-effect="#path-effect2"
       sodipodi:type="arc"
       sodipodi:cx="69.39505"
       sodipodi:cy="127.89048"
       sodipodi:rx="4"
       sodipodi:ry="4"
       d="m 73.39505,127.89048 a 4,4 0 0 1 -4,4 4,4 0 0 1 -4,-4 4,4 0 0 1 4,-4 4,4 0 0 1 4,4 z"
       transform="matrix(6.6145833,0,0,6.6145833,-424.62351,-811.5464)" />
  </g>
</svg>
